<svg xmlns="http://www.w3.org/2000/svg" xml:space="preserve" viewBox="0 0 1024 1024">
   <circle cx="512" cy="512" r="512" style="fill:#25134f"/>
   <path d="M321.496 307.798c-3.185 0-5.988-1.4-7.9-4.332-2.93-4.331-1.655-10.32 2.676-13.25l100.777-66.76c4.332-2.93 10.32-1.656 13.25 2.676s1.657 10.32-2.675 13.25l-100.905 66.633a8.62 8.62 0 0 1-5.223 1.783m260.542 188.686c-.255 0-.255-.254-.255-.254L327.484 291.109c-2.93-2.421-6.752-2.93-10.065-1.147-3.312 1.401-5.35 4.842-5.35 8.409l-.51 334.819v4.459c0 94.916 77.08 172.123 172.124 172.123s172.125-77.08 172.125-171.996c.253-58.351-29.178-110.205-73.77-141.291ZM330.796 318.118 517.571 468.71a177 177 0 0 0-34.017-3.312c-66.505 0-124.601 38.094-153.012 93.515zm152.886 472.67c-84.342 0-153.268-68.67-153.268-153.267 0-84.342 68.671-153.267 153.268-153.267 84.342 0 153.267 68.67 153.267 153.267S568.28 790.79 483.682 790.79m200.79-367.052c-.255-.254-.51-.509-1.02-.765l-255.446-198.88c-2.93-2.166-6.753-2.676-9.938-1.147-3.313 1.401-5.351 4.842-5.351 8.41L407.876 555.6v5.096c0 94.916 77.08 172.123 172.123 172.123 95.044 0 172.125-77.08 172.125-172.124.253-55.803-26.502-105.49-67.653-136.96zM431.318 250.594 612.106 391.12A176 176 0 0 0 580 388.19c-65.741 0-122.946 37.074-152.121 91.349zm148.808 463.115c-84.342 0-153.013-68.67-153.267-153.013v-4.586c2.42-82.431 70.2-148.681 153.012-148.681 84.342 0 153.269 68.67 153.269 153.267.254 84.215-68.417 153.013-153.014 153.013" style="fill:#fff"/>
</svg>
