<svg xmlns="http://www.w3.org/2000/svg" xml:space="preserve" viewBox="0 0 1024 1024">
   <circle cx="512" cy="512" r="512" style="fill:#f5a067"/>
   <path d="M616.562 738.654q29.17 12.548 60.248 5.907-.569 2.744-3.544 2.363a560 560 0 0 0 1.181 50.797q-4.535-.534-8.269 1.181H641.37a281 281 0 0 1-27.17-5.906q-1.154-27.825 2.362-54.342m-300.057-8.269q22.218 15.326 49.616 17.72 1.864 3.111 5.906 2.363v48.434h-10.632q-28.072-3.252-53.16-16.538h3.544q-.295-27.177.591-54.342 1.446 2.344 4.135 2.363m127.583-18.901q.07 2.226-1.772 3.544a626 626 0 0 0 .591 66.154q-26.966 13.914-56.704 17.72h-14.176v-48.434q-4.042.749-5.906-2.363 31.132.197 56.703-17.13a501 501 0 0 0 21.264-19.491m278.794 5.906a910 910 0 0 1-1.181 63.792q-22.034 12.075-47.254 16.539a560 560 0 0 1-1.18-50.797q2.975.38 3.543-2.363 27.09-6.75 46.072-27.17m-106.32 21.264q-3.515 26.516-2.362 54.342a135 135 0 0 1-28.352-11.223q-30.633-19.687-54.341-47.844a855 855 0 0 1 37.802-37.802 822 822 0 0 0 25.99 26.58 387 387 0 0 0 21.263 15.947M500.792 653.6q2.979 36.114 3.544 73.242a1626 1626 0 0 1-36.621 37.212 514 514 0 0 1-24.808 17.13 626 626 0 0 1-.59-66.155q1.84-1.319 1.771-3.544a982 982 0 0 1 56.704-57.885m70.88-70.88q1.2 36.448 2.363 73.242a2535 2535 0 0 1-69.699 70.88q-.565-37.127-3.544-73.242a3010 3010 0 0 1 70.88-70.88M282.246 764.644q-33.967-29.518-45.48-73.243-17.006-76.19 34.848-133.49 1.765.152 2.954-1.181l1.18 199.644 7.68 7.679q-.405.706-1.182.59m481.982-197.282q22.5 26.698 28.943 61.429 10.595 60.747-24.217 111.045-1.095-.196-1.772-1.182L766 573.268a18.5 18.5 0 0 0-2.953-4.725q.22-1.075 1.181-1.181m0 0q-.961.105-1.18 1.181a18.5 18.5 0 0 1 2.952 4.725l1.182 165.386q.678.985 1.772 1.182-18.19 27.06-47.253 41.346a910 910 0 0 0 1.181-63.792 186 186 0 0 0 10.041-14.175q27.468-55.967-11.813-103.957a173.4 173.4 0 0 1-26.58-27.171 1682 1682 0 0 1 37.212-37.803 1282 1282 0 0 1 32.486 33.078m-155.935-21.264q2.979 35.524 3.544 72.06a855 855 0 0 1-37.802 37.803q-1.162-36.794-2.363-73.242a803 803 0 0 1 36.621-36.621M316.505 730.385q-2.69-.019-4.135-2.363-.885 27.165-.59 54.342h-3.545a148.8 148.8 0 0 1-25.989-17.72q.777.115 1.182-.591l-7.68-7.679-1.18-199.644q-1.189 1.333-2.954 1.181a252 252 0 0 1 25.399-24.808 1693 1693 0 0 1 37.212 37.803 595 595 0 0 0-37.212 40.165 103 103 0 0 0-7.088 12.994q-21.273 62.21 26.58 106.32M433.456 397.25q-.585 37.519 1.182 74.424a1144 1144 0 0 0-42.528 44.89 13656 13656 0 0 1 105.138 106.91l-38.393 38.394a7212 7212 0 0 1-72.652-73.242 2887 2887 0 0 0 .59-142.941q-2.57 3.48-6.496 4.725a1693 1693 0 0 1 53.16-53.16m-47.253 191.376a3108 3108 0 0 0-72.06-72.061 2619 2619 0 0 1 66.154-66.155q3.926-1.245 6.497-4.725a2887 2887 0 0 1-.59 142.94M604.75 406.7a14357 14357 0 0 1 109.864 109.273 12559 12559 0 0 1-102.776 102.185q-.565-36.537-3.544-72.061a517 517 0 0 1 28.352-30.715l-34.259-35.44q1.201-36.447 2.363-73.242m0 0q-1.162 36.795-2.363 73.242a3010 3010 0 0 1-70.88-70.88q19-19.585 37.803-38.983a389 389 0 0 1 35.44 36.621m137.034-46.072q4.62 14.185 0 28.352a101.5 101.5 0 0 0 0-28.352m-231.54-40.165q-.57 36.803 1.181 74.424a3528 3528 0 0 1-76.786 76.786 1173 1173 0 0 1-1.182-74.424 3529 3529 0 0 1 76.787-76.786m-253.986-25.99a2692 2692 0 0 1 0 159.48 1113 1113 0 0 1-7.679-10.632q-12.171-26.88-17.129-55.522v-29.534q3.909-20.335 11.223-40.165 5.496-12.793 13.585-23.626m515.06-3.543q20.88 30.754 27.17 67.335v25.99a330 330 0 0 1-5.316 27.17q-5.691 24.363-20.673 43.71-1.19-81.287-2.363-163.024.22-1.075 1.181-1.181m-168.93-47.253q-.585 30.433 1.18 60.247l-92.143 90.963q-1.752-37.622-1.181-74.424a3725 3725 0 0 1 55.522-56.113 346 346 0 0 1 22.445-15.357q6.591-4.19 14.176-5.316m-326.047 27.17q2.362 51.67 2.362 104.548 0 52.573-1.181 104.547a112.5 112.5 0 0 1-21.264-25.989 2692 2692 0 0 0 0-159.48 111.5 111.5 0 0 1 20.083-23.626m179.562-11.813q22.287 17.558 41.346 38.984l-35.44 36.62q-4.896 1.714-7.088-3.543-.554-35.728 1.182-72.061m-146.485-11.813h5.906q-.295 28.948.591 57.885 1.732-2.257 2.953 0-16.863 14.223-26.58 34.258-15.97 44.53 8.27 85.056a69291 69291 0 0 0 34.849 37.212 853 853 0 0 1-38.393 37.212 438 438 0 0 0-19.492-18.902q1.18-51.974 1.181-104.547 0-52.879-2.362-104.548 14.598-14.4 33.077-23.626m412.284 1.18q30.388 14.626 49.615 42.529-.961.105-1.18 1.181 1.171 81.737 2.362 163.023-18.048 24.264-40.756 44.891l-38.393-38.393q20.567-18.786 37.212-40.756 9.303-14.617 11.222-31.896 4.62-14.167 0-28.352-5.092-26.13-22.445-46.072-1.16-33.72 2.363-66.154m-304.783-9.45q21.313 6.816 38.984 20.083a1140 1140 0 0 0-1.182 72.06 649 649 0 0 1-23.626-23.035q-11.799-9.183-24.808-15.948 3.938-.57 6.497 2.363.886-27.165.59-54.341 2.288.42 3.545-1.182m-73.243-3.544q1.309-.232 2.363.59a304 304 0 0 0-1.181 26.58q.06 14 2.362 27.171-15.623 4.861-28.352 15.358-1.22-2.257-2.953 0-.885-28.937-.59-57.885h-5.907a315 315 0 0 0 15.357-7.68 174 174 0 0 1 18.901-4.134m305.965-3.544h18.9q28.166 3.285 53.16 16.539-3.521 32.433-2.362 66.154-21.207-20.94-50.797-25.989a128.5 128.5 0 0 0-18.31-3.544q-.887-26.572-.591-53.16m-8.27 0h8.27q-.296 26.588.59 53.16a128.5 128.5 0 0 1 18.31 3.544q-35.826-5.956-64.972 15.357a769 769 0 0 1-1.182-60.247q8.796-5.01 18.902-7.68 10.389-1.544 20.082-4.134m-259.892 0h7.088q14.256 2.393 28.352 7.088-1.257 1.602-3.544 1.182.295 27.177-.59 54.34-2.56-2.932-6.498-2.362-11.624-2.164-22.445-5.907 1.005-1.63-2.363-1.18zm-23.627 0h23.627v53.16q3.368-.45 2.363 1.181a126.4 126.4 0 0 0-36.622 3.544q-2.303-13.17-2.362-27.17.014-13.425 1.181-26.58-1.053-.824-2.363-.59a91 91 0 0 1 14.176-3.545" style="fill:#1b3760"/>
</svg>
