<svg xmlns="http://www.w3.org/2000/svg" xml:space="preserve" viewBox="0 0 1024 1024">
   <circle cx="512" cy="512" r="512" style="fill:#728DBE"/>
   <path d="M579.436 431.814q2.834 2.425 5.596 4.934l3.003 2.673c17.775 16.718 29.808 41.17 30.667 65.768.298 17.9-1.927 33.657-9.793 49.985l-1.516 3.266c-11.848 23.71-33.306 40.437-57.689 49.82a152.785 153.085 0 0 1-11.234 3.136l-2.952.808c-29.303 6.84-60.276-.775-85.395-16.359-22.962-16.306-38.538-39.73-43.725-67.441-.762-5.333-.854-10.614-.82-15.995l.016-3.483c.424-25.978 11.292-49.7 29.008-68.59 39.515-37.178 101.356-42.163 144.833-8.522zm-68.35-226.31 3.42.007c64.072.235 127.933 19.693 179.169 58.98l2.071 1.564c10.641 8.045 20.564 16.69 30.164 25.95l1.894 1.818c8.383 8.088 16.005 16.493 23.177 25.695l2.812 3.482c33.418 42.107 53.922 93 61.658 146.045l.423 2.846c4.221 29.756 3.116 60.865-1.618 90.46l-.563 3.544c-8.836 52.983-32.74 102.836-67.488 143.589l-2.262 2.673c-14.45 16.564-30.074 32.268-47.88 45.176l-4.786 3.561c-47.375 34.804-107.09 56.051-165.94 57.446-.938.023-1.878.05-2.845.074-79.213 1.804-158.093-24.79-216.161-79.734-2.549-2.403-5.144-4.672-7.83-6.917-22.095-19.296-39.277-44.835-53.724-70.129l-1.325-2.294c-18.1-31.691-28.881-67.014-34.491-102.972l-.425-2.576c-4.823-30.49-3.616-64.023 1.618-94.318l.563-3.344c5.548-31.662 16.826-61.57 31.672-89.96l1.45-2.81c9.506-18.275 21.505-34.902 35.102-50.336a454.361 455.251 0 0 0 3.55-4.095c12.013-13.958 25.157-27.387 39.887-38.457l2.181-1.676c53.93-41.344 118.65-63.574 186.528-63.293zM468.03 311.145l-3.056.758c-38.98 9.95-71.43 28.068-100.81 55.464l-2.594 2.36c-36.044 34.204-56.998 85.927-58.538 135.225-.827 55.153 18.424 105.913 56.356 145.919l1.807 1.93c37.587 39.888 90.282 61.907 144.718 64.128 23.593.61 47.084-2.684 69.567-9.835l2.77-.878c22.379-7.273 43.149-18.129 61.7-32.617l3.264-2.467c44.036-34.462 69.775-84.247 77.28-139.158.343-3.44.53-6.84.64-10.295l.186-4.373c1.36-46.193-13.872-93.745-43.166-129.603l-1.554-1.919c-11.98-14.749-24.964-27.454-40.233-38.752l-2.015-1.514c-30.724-22.786-71.716-37.957-110.195-38.204l-2.664-.024c-26.942-.337-26.942-.337-53.463 3.857z" style="fill:#fff;stroke-width:.999573"/>
</svg>
