<svg xmlns="http://www.w3.org/2000/svg" viewBox="0 0 1024 1024">
   <circle cx="512" cy="512" r="512" style="fill:#abd3ff"/>
   <path d="M241.42 546.51c0 6.639-1.475 13.277-5.163 18.441s-8.852 9.59-15.49 12.54q-9.96 4.426-24.343 4.426c-7.376 0-14.015-.738-19.179-1.476-5.163-.737-10.327-2.95-16.228-5.163v-26.555c5.902 2.95 11.802 5.164 18.441 6.639 5.902 1.475 11.802 2.213 16.966 2.213 4.426 0 8.114-.738 10.327-2.213s2.951-3.688 2.951-5.901c0-1.476-.738-2.951-1.475-3.689 0-1.475-1.476-2.95-3.688-3.688-2.213-1.475-7.377-3.688-15.49-7.376-7.377-2.95-13.277-6.639-16.966-9.59s-6.64-6.638-8.114-10.327c-1.476-3.688-2.951-8.851-2.951-14.015 0-10.327 3.688-18.44 11.802-23.604 7.376-5.9 18.441-8.851 31.718-8.851 11.802 0 24.342 2.95 36.144 8.114l-8.852 22.129c-11.065-4.426-19.916-7.377-28.03-7.377q-5.532 0-8.851 2.213c-1.476 1.476-2.95 3.689-2.95 5.164 0 2.213 1.474 4.426 3.687 5.901s8.852 5.163 19.18 9.59c9.589 4.425 16.965 8.85 20.653 14.014 3.689 5.164 5.901 11.065 5.901 18.441m64.912 33.931-23.604-80.402h-.738c.738 14.015 1.476 24.342 1.476 31.718v47.946h-27.293v-110.65h41.308l24.342 78.927h.737l22.867-78.927h41.308v111.38h-28.768v-56.798s.738-10.327.738-22.867h-.738L335.1 580.433zm149.74 0h-30.981V493.4h-28.03v-24.342h87.041V493.4h-28.03zm124.66-75.977q0 18.81-11.065 28.768c-11.065 9.958-18.441 10.327-32.456 10.327h-8.852v36.882h-30.98v-111.38h39.831c14.753 0 25.817 2.95 32.456 8.852q11.065 9.957 11.065 26.555zm-52.372 14.753h5.901c4.426 0 8.114-1.475 11.065-3.688s4.426-5.901 4.426-10.327q0-11.065-13.277-11.065h-8.114zm159.33-3.688h49.422v59.749q-19.916 6.639-44.258 6.639c-17.703 0-31.718-5.164-41.308-14.753s-14.753-24.342-14.753-42.783c0-17.703 5.164-31.718 16.228-42.045 10.327-10.328 25.817-14.754 44.258-14.754 7.376 0 14.015.738 20.654 2.213s11.802 2.951 16.966 5.164l-10.327 22.867c-8.114-3.688-17.703-5.901-27.293-5.901-8.852 0-16.228 2.95-21.391 8.851s-7.376 14.015-7.376 24.342 2.213 18.441 6.638 23.604c4.426 5.164 11.065 8.114 19.18 8.114 4.425 0 8.85-.737 12.54-1.475v-17.703h-19.18zm174.08 8.851c0 18.441-4.426 33.194-14.015 42.783-9.59 9.59-23.604 14.753-42.045 14.753-17.703 0-31.718-5.163-41.308-14.753s-14.753-24.342-14.753-42.783c0-18.44 5.164-32.456 14.015-42.783s23.604-14.753 42.045-14.753 32.456 5.164 41.308 14.753 14.753 24.342 14.753 42.783m-78.927 0c0 21.391 8.114 32.456 23.604 32.456 8.114 0 14.015-2.95 17.703-8.114 3.688-5.163 5.901-13.277 5.901-24.342s-2.213-19.179-5.901-24.342-9.59-8.114-16.966-8.114c-16.966 0-24.342 11.065-24.342 32.456zm-223.5 130.56c-2.95 0-5.901-.737-8.114-2.95-5.163-3.688-6.639-11.065-2.95-16.966.737-1.476 83.352-138.68 40.57-206.54-8.852-14.015-18.442-22.13-29.506-22.13-20.654-.737-43.52 22.13-50.897 31.719-4.425 5.9-12.54 6.638-18.44 2.213-5.902-4.426-6.64-12.54-2.213-18.441 1.475-1.476 33.93-43.521 72.288-41.308 19.916.737 36.882 12.54 50.159 34.669 31.718 50.897 9.589 127.61-12.54 178.51 22.867-16.228 51.635-31.718 78.19-36.144 7.376-.738 14.015 3.688 14.753 11.065s-3.689 14.015-11.065 14.753c-50.897 8.114-111.38 67.125-112.12 67.863-1.476 2.95-5.164 3.688-8.114 3.688z" style="fill:#2b2b2b"/>
</svg>
